<svg width="25" height="25" viewBox="0 0 25 25" fill="none" xmlns="http://www.w3.org/2000/svg">
<path d="M12.6247 13.3124C12.5518 13.302 12.458 13.302 12.3747 13.3124C10.5414 13.2499 9.08301 11.7499 9.08301 9.90617C9.08301 8.02075 10.6039 6.4895 12.4997 6.4895C14.3851 6.4895 15.9164 8.02075 15.9164 9.90617C15.906 11.7499 14.458 13.2499 12.6247 13.3124Z" stroke="#292D32" stroke-width="2" stroke-linecap="round" stroke-linejoin="round"/>
<path d="M19.5211 20.1876C17.667 21.8855 15.2086 22.9168 12.5003 22.9168C9.79199 22.9168 7.33366 21.8855 5.47949 20.1876C5.58366 19.2085 6.20866 18.2501 7.32324 17.5001C10.1774 15.6043 14.8441 15.6043 17.6774 17.5001C18.792 18.2501 19.417 19.2085 19.5211 20.1876Z" stroke="#292D32" stroke-width="2" stroke-linecap="round" stroke-linejoin="round"/>
<path d="M12.4997 22.9167C18.2526 22.9167 22.9163 18.253 22.9163 12.5C22.9163 6.74707 18.2526 2.08337 12.4997 2.08337C6.74671 2.08337 2.08301 6.74707 2.08301 12.5C2.08301 18.253 6.74671 22.9167 12.4997 22.9167Z" stroke="#292D32" stroke-width="2" stroke-linecap="round" stroke-linejoin="round"/>
</svg>
