<svg width="25" height="25" viewBox="0 0 25 25" fill="none" xmlns="http://www.w3.org/2000/svg">
<g clip-path="url(#clip0_0_479)">
<path d="M7.29199 11.4583C6.14616 11.4583 5.20866 10.5208 5.20866 9.375V8.33333C5.20866 7.1875 6.14616 6.25 7.29199 6.25C8.43783 6.25 9.37533 7.1875 9.37533 8.33333V9.375C9.37533 10.5208 8.43783 11.4583 7.29199 11.4583ZM5.20866 18.7427L9.37533 18.75C9.94824 18.75 10.417 18.2812 10.417 17.7083V15.625C10.417 13.9062 9.01074 12.5 7.29199 12.5C5.57324 12.5 4.16699 13.9062 4.16699 15.625V17.7083C4.16699 18.2833 4.63366 18.7427 5.20866 18.7427ZM19.792 18.75H13.542C12.966 18.75 12.5003 18.2844 12.5003 17.7083C12.5003 17.1323 12.966 16.6667 13.542 16.6667H19.792C20.368 16.6667 20.8337 17.1323 20.8337 17.7083C20.8337 18.2844 20.368 18.75 19.792 18.75ZM19.792 14.5833H13.542C12.966 14.5833 12.5003 14.1167 12.5003 13.5417C12.5003 12.9667 12.966 12.5 13.542 12.5H19.792C20.368 12.5 20.8337 12.9667 20.8337 13.5417C20.8337 14.1167 20.368 14.5833 19.792 14.5833ZM19.792 10.4167H13.542C12.966 10.4167 12.5003 9.95 12.5003 9.375C12.5003 8.8 12.966 8.33333 13.542 8.33333H19.792C20.368 8.33333 20.8337 8.8 20.8337 9.375C20.8337 9.95 20.368 10.4167 19.792 10.4167Z" fill="#494C4E"/>
<path d="M22.9167 2.08325H2.08333C0.9375 2.08325 0 3.02075 0 4.16659V20.8333C0 21.9791 0.9375 22.9166 2.08333 22.9166H22.9167C24.0625 22.9166 25 21.9791 25 20.8333V4.16659C25 3.02075 24.0625 2.08325 22.9167 2.08325ZM22.9167 20.3124C22.9167 20.6041 22.6875 20.8333 22.3958 20.8333H2.60417C2.3125 20.8333 2.08333 20.6041 2.08333 20.3124V4.68742C2.08333 4.39575 2.3125 4.16659 2.60417 4.16659H22.3958C22.6875 4.16659 22.9167 4.39575 22.9167 4.68742V20.3124Z" fill="#494C4E"/>
</g>
<defs>
<clipPath id="clip0_0_479">
<rect width="25" height="25" fill="white"/>
</clipPath>
</defs>
</svg>
