<svg width="25" height="25" viewBox="0 0 25 25" fill="none" xmlns="http://www.w3.org/2000/svg">
<path d="M7.69551 15.7019C8.05 15.5929 8.18579 15.3749 8.21309 15.2114C8.18579 14.9932 8.05962 14.9048 8.01846 14.508C7.97031 14.0463 8.35586 12.9415 8.47051 12.7444C8.45488 12.7067 8.43877 12.6734 8.42339 12.6347C7.88618 12.2939 7.33896 11.6776 7.0875 10.5636C6.95303 9.96805 7.06426 9.35946 7.38638 8.84061C7.38638 8.84061 7.02197 6.29808 7.53516 4.63754C7.05576 4.40678 6.53369 4.44564 5.81816 4.51713C5.26904 4.57211 5.19111 4.68881 4.76934 4.62762C4.28599 4.55736 3.89375 4.41063 3.77578 4.35155C3.70781 4.31766 3.07026 4.88329 2.89277 5.3452C2.32974 6.80844 2.48091 7.81161 2.62422 8.57064C2.61943 8.64838 2.61328 8.72582 2.61328 8.80438L2.74414 9.36034C2.74463 9.3662 2.74414 9.37167 2.74434 9.37723C2.45908 9.63309 2.28716 10.003 2.37793 10.405C2.56484 11.2319 2.96729 11.5672 3.36357 11.7125C3.62642 12.454 3.88145 12.9222 4.17905 13.237C4.2543 13.5801 4.32075 14.0461 4.27261 14.5081C4.07173 16.4432 0 15.4239 0 18.8212C0 19.2661 1.26714 19.992 4.33682 20.201C4.32783 20.1355 4.32168 20.0694 4.32168 20.0019C4.32168 16.9553 6.30215 16.1307 7.69551 15.7019Z" fill="white"/>
<path d="M20.7269 14.5083C20.6788 14.0466 20.745 13.5808 20.8203 13.2383C21.1184 12.9229 21.3734 12.4545 21.6363 11.7126C22.0325 11.5672 22.4347 11.2317 22.6214 10.4053C22.7078 10.0246 22.5583 9.67255 22.2996 9.41893C22.487 8.79081 23.2239 5.88046 21.0107 5.29022C20.2746 4.37035 19.6309 4.40707 18.5267 4.51742C17.9776 4.5724 17.8996 4.6891 17.478 4.62792C17.3858 4.61449 17.2983 4.59774 17.2139 4.57987C17.2948 4.69022 17.372 4.80429 17.4403 4.92616C18.1791 6.24613 17.984 7.91786 17.7519 8.93895C18.0287 9.43749 18.1193 10.0104 17.9942 10.5642C17.7427 11.6775 17.1958 12.2936 16.6589 12.6345C16.6319 12.702 16.5528 12.8403 16.6618 12.9766C16.7613 13.138 16.7792 13.1226 16.8877 13.2372C16.9629 13.5804 17.0292 14.0463 16.981 14.5083C16.9413 14.8916 16.2802 15.2117 16.4667 15.3665C16.6501 15.4437 16.8628 15.5245 17.1014 15.6121C18.4698 16.1145 20.76 16.9556 20.76 20.0022C20.76 20.0677 20.7543 20.132 20.7458 20.1955C23.7554 19.9794 24.9994 19.2624 24.9994 18.8215C24.9994 15.4242 20.9278 16.4435 20.7269 14.5083Z" fill="white"/>
<path d="M14.6977 15.0362C14.6422 14.5047 14.7187 13.9684 14.8051 13.5735C15.1482 13.211 15.4422 12.6713 15.7448 11.8172C16.2008 11.6499 16.664 11.2637 16.8791 10.312C16.9781 9.87376 16.8061 9.46849 16.5086 9.17649C16.7241 8.45335 17.5724 5.10242 15.0244 4.42293C14.177 3.36375 13.4355 3.40608 12.1645 3.53318C11.5321 3.59637 11.4423 3.73084 10.9569 3.66028C10.4003 3.57937 9.94883 3.41043 9.81299 3.34251C9.73477 3.3033 9.00063 3.95472 8.79609 4.48645C8.14814 6.17102 8.32222 7.32625 8.48701 8.20013C8.48159 8.28963 8.47412 8.37874 8.47412 8.46922L8.6251 9.10935C8.62559 9.11595 8.6251 9.12225 8.62529 9.12884C8.29688 9.42327 8.09907 9.84915 8.20361 10.312C8.41855 11.2641 8.88203 11.6501 9.33828 11.8173C9.64097 12.6711 9.93433 13.2105 10.2773 13.573C10.3639 13.9677 10.4404 14.5044 10.385 15.0362C10.1536 17.264 5.46582 16.0905 5.46582 20.0023C5.46582 20.6055 7.48731 21.6576 12.5413 21.6576C17.5953 21.6576 19.6168 20.6055 19.6168 20.0023C19.6168 16.0905 14.929 17.264 14.6977 15.0362ZM11.7208 21.0101L10.4378 15.7988L12.0162 16.4557L11.9313 17.2183L12.182 17.2129L11.7208 21.0101ZM13.487 21.0101L13.0257 17.2129L13.2764 17.2183L13.1916 16.4557L14.7699 15.7988L13.487 21.0101Z" fill="white"/>
</svg>
