<svg width="25" height="25" viewBox="0 0 25 25" fill="none" xmlns="http://www.w3.org/2000/svg">
<path fill-rule="evenodd" clip-rule="evenodd" d="M2.08301 6.77075C2.08301 4.18192 4.18167 2.08325 6.77051 2.08325H12.4997C14.8008 2.08325 16.6663 3.94873 16.6663 6.24992V7.29158C16.6663 7.86688 16.2 8.33325 15.6247 8.33325C15.0494 8.33325 14.583 7.86688 14.583 7.29158V6.24992C14.583 5.09932 13.6503 4.16659 12.4997 4.16659H6.77051C5.33227 4.16659 4.16634 5.33251 4.16634 6.77075V18.2291C4.16634 19.6673 5.33227 20.8333 6.77051 20.8333H12.4997C13.6503 20.8333 14.583 19.9005 14.583 18.7499V17.7083C14.583 17.1329 15.0494 16.6666 15.6247 16.6666C16.2 16.6666 16.6663 17.1329 16.6663 17.7083V18.7499C16.6663 21.0511 14.8008 22.9166 12.4997 22.9166H6.77051C4.18167 22.9166 2.08301 20.8179 2.08301 18.2291V6.77075ZM19.0548 8.63835C19.4615 8.23155 20.1211 8.23155 20.5279 8.63835L23.6529 11.7634C24.0597 12.1701 24.0597 12.8297 23.6529 13.2365L20.5279 16.3615C20.1211 16.7683 19.4615 16.7683 19.0548 16.3615C18.648 15.9547 18.648 15.2951 19.0548 14.8884L20.4015 13.5416H11.458C10.8827 13.5416 10.4163 13.0752 10.4163 12.4999C10.4163 11.9246 10.8827 11.4583 11.458 11.4583H20.4015L19.0548 10.1115C18.648 9.70469 18.648 9.04515 19.0548 8.63835Z" fill="#0F1729"/>
</svg>
