<svg width="25" height="25" viewBox="0 0 25 25" fill="none" xmlns="http://www.w3.org/2000/svg">
<path d="M22.917 1.04177H15.6253C15.0289 1.03933 14.4507 1.24667 13.9918 1.62753C13.5328 2.00839 13.2224 2.5385 13.1149 3.1251L12.1566 8.38552C12.0903 8.75202 12.1055 9.12859 12.2009 9.4886C12.2963 9.84861 12.4696 10.1833 12.7087 10.4689C12.949 10.7546 13.2487 10.9846 13.5869 11.1429C13.925 11.3012 14.2936 11.384 14.667 11.3855H17.7087L17.4482 12.073C17.256 12.5828 17.1892 13.1313 17.2535 13.6723C17.3179 14.2133 17.5114 14.7309 17.8179 15.1814C18.1243 15.6318 18.5346 16.002 19.0142 16.2605C19.4938 16.519 20.0285 16.6584 20.5732 16.6668C20.7754 16.6684 20.9736 16.6111 21.1438 16.502C21.314 16.3929 21.4487 16.2366 21.5316 16.0522L23.8649 10.7814C23.918 10.6665 23.9498 10.543 23.9587 10.4168V2.08344C23.9587 1.80717 23.8489 1.54222 23.6536 1.34687C23.4582 1.15152 23.1933 1.04177 22.917 1.04177ZM21.8753 10.1355L19.9691 14.4376C19.783 14.3364 19.6227 14.1938 19.5003 14.0209C19.3777 13.8474 19.3002 13.6461 19.2748 13.4352C19.2493 13.2243 19.2767 13.0103 19.3545 12.8126L19.7503 11.7709C19.8545 11.5008 19.8899 11.209 19.8536 10.9218C19.8172 10.6345 19.7102 10.3608 19.542 10.1251C19.3764 9.89032 19.1561 9.69935 18.9003 9.56869C18.6444 9.43802 18.3605 9.37158 18.0732 9.3751H14.6462C14.577 9.3753 14.5085 9.3605 14.4456 9.33173C14.3827 9.30296 14.3267 9.26089 14.2816 9.20844C14.2007 9.09736 14.167 8.95883 14.1878 8.82302L15.1462 3.61469C15.1417 3.55013 15.1509 3.48535 15.1733 3.42462C15.1956 3.36388 15.2306 3.30857 15.2758 3.26232C15.3211 3.21607 15.3756 3.17993 15.4359 3.15628C15.4961 3.13263 15.5607 3.12201 15.6253 3.1251H21.8753V10.1355ZM10.3545 13.5939H7.34408L7.60449 12.9064C7.79397 12.3936 7.85687 11.8427 7.78784 11.3004C7.71882 10.7582 7.51991 10.2406 7.20801 9.79169C6.89612 9.34277 6.48047 8.97578 5.99637 8.7219C5.51227 8.46802 4.97404 8.33476 4.42741 8.33344C4.22526 8.33184 4.02702 8.3891 3.85685 8.49822C3.68669 8.60735 3.55195 8.76364 3.46908 8.94802L1.13574 14.2189C1.07605 14.3498 1.04413 14.4916 1.04199 14.6355V22.9689C1.04199 23.2451 1.15174 23.5101 1.34709 23.7054C1.54244 23.9008 1.80739 24.0105 2.08366 24.0105H9.37533C9.9717 24.013 10.5499 23.8056 11.0089 23.4248C11.4678 23.0439 11.7782 22.5138 11.8857 21.9272L12.8441 16.7189C12.9103 16.3524 12.8952 15.9758 12.7998 15.6158C12.7044 15.2558 12.531 14.9211 12.292 14.6355C12.0661 14.3295 11.7752 14.0773 11.4402 13.8972C11.1052 13.7171 10.7344 13.6135 10.3545 13.5939ZM9.85449 21.4897C9.83661 21.6019 9.77768 21.7035 9.68914 21.7747C9.6006 21.8459 9.48876 21.8817 9.37533 21.8751H3.12533V14.8647L5.03158 10.5626C5.21762 10.6638 5.37798 10.8064 5.50033 10.9793C5.62291 11.1528 5.70042 11.3541 5.72588 11.565C5.75134 11.7759 5.72394 11.9899 5.64616 12.1876L5.25033 13.2293C5.14619 13.4994 5.11071 13.7912 5.14707 14.0784C5.18343 14.3657 5.29049 14.6394 5.45866 14.8751C5.62194 15.1137 5.84117 15.3088 6.0972 15.4431C6.35323 15.5775 6.63826 15.6471 6.92741 15.6459H10.3545C10.4237 15.6457 10.4921 15.6605 10.555 15.6893C10.618 15.7181 10.6739 15.7601 10.7191 15.8126C10.7999 15.9237 10.8336 16.0622 10.8128 16.198L9.85449 21.4897Z" fill="black"/>
</svg>
