<svg width="25" height="25" viewBox="0 0 25 25" fill="none" xmlns="http://www.w3.org/2000/svg">
<path d="M7.29134 8.33325H4.16634C3.02051 8.33325 2.08301 7.39575 2.08301 6.24992V4.16659C2.08301 3.02075 3.02051 2.08325 4.16634 2.08325H7.29134C8.43717 2.08325 9.37467 3.02075 9.37467 4.16659V6.24992C9.37467 7.39575 8.43717 8.33325 7.29134 8.33325Z" stroke="#292D32" stroke-linecap="round" stroke-linejoin="round"/>
<path d="M21.667 7.29167H17.917C17.2295 7.29167 16.667 6.72916 16.667 6.04166V4.37501C16.667 3.68751 17.2295 3.125 17.917 3.125H21.667C22.3545 3.125 22.917 3.68751 22.917 4.37501V6.04166C22.917 6.72916 22.3545 7.29167 21.667 7.29167Z" stroke="#292D32" stroke-linecap="round" stroke-linejoin="round"/>
<path d="M21.667 15.1042H17.917C17.2295 15.1042 16.667 14.5417 16.667 13.8542V12.1875C16.667 11.5 17.2295 10.9375 17.917 10.9375H21.667C22.3545 10.9375 22.917 11.5 22.917 12.1875V13.8542C22.917 14.5417 22.3545 15.1042 21.667 15.1042Z" stroke="#292D32" stroke-linecap="round" stroke-linejoin="round"/>
<path d="M9.375 5.20825H16.6667" stroke="#292D32" stroke-miterlimit="10" stroke-linecap="round" stroke-linejoin="round"/>
<path d="M13.0205 5.20825V18.7499C13.0205 19.8958 13.958 20.8333 15.1038 20.8333H16.6663" fill="white"/>
<path d="M13.0205 5.20825V18.7499C13.0205 19.8958 13.958 20.8333 15.1038 20.8333H16.6663" stroke="#292D32" stroke-miterlimit="10" stroke-linecap="round" stroke-linejoin="round"/>
<path d="M13.0205 13.0208H16.6663" stroke="#292D32" stroke-miterlimit="10" stroke-linecap="round" stroke-linejoin="round"/>
<path d="M21.667 22.9167H17.917C17.2295 22.9167 16.667 22.3542 16.667 21.6667V20C16.667 19.3125 17.2295 18.75 17.917 18.75H21.667C22.3545 18.75 22.917 19.3125 22.917 20V21.6667C22.917 22.3542 22.3545 22.9167 21.667 22.9167Z" stroke="#292D32" stroke-linecap="round" stroke-linejoin="round"/>
</svg>
