<svg width="25" height="25" viewBox="0 0 25 25" fill="none" xmlns="http://www.w3.org/2000/svg">
<path d="M22.9163 22.9165H2.08301" stroke="#1C274C" stroke-width="1.5625" stroke-linecap="round"/>
<path d="M2.08301 11.4583L10.5475 4.68673C11.6888 3.77369 13.3105 3.77369 14.4519 4.68673L22.9163 11.4583" stroke="#1C274C" stroke-width="1.5625" stroke-linecap="round"/>
<path opacity="0.5" d="M16.1455 5.72917V3.64583C16.1455 3.35819 16.3787 3.125 16.6663 3.125H19.2705C19.5581 3.125 19.7913 3.35819 19.7913 3.64583V8.85417" stroke="#1C274C" stroke-width="1.5625" stroke-linecap="round"/>
<path d="M4.16699 22.9168V9.896" stroke="#1C274C" stroke-width="1.5625" stroke-linecap="round"/>
<path d="M20.833 22.9168V9.896" stroke="#1C274C" stroke-width="1.5625" stroke-linecap="round"/>
<path opacity="0.5" d="M15.625 22.9168V17.7085C15.625 16.2354 15.625 15.4988 15.1674 15.0411C14.7097 14.5835 13.9731 14.5835 12.5 14.5835C11.0269 14.5835 10.2903 14.5835 9.83265 15.0411C9.375 15.4988 9.375 16.2354 9.375 17.7085V22.9168" stroke="#1C274C" stroke-width="1.5625"/>
<path opacity="0.5" d="M14.5837 9.89583C14.5837 11.0465 13.651 11.9792 12.5003 11.9792C11.3497 11.9792 10.417 11.0465 10.417 9.89583C10.417 8.74524 11.3497 7.8125 12.5003 7.8125C13.651 7.8125 14.5837 8.74524 14.5837 9.89583Z" stroke="#1C274C" stroke-width="1.5625"/>
</svg>
