<svg width="25" height="25" viewBox="0 0 25 25" fill="none" xmlns="http://www.w3.org/2000/svg">
<path d="M17.968 20.3117C17.7609 20.3117 17.5621 20.394 17.4156 20.5405C17.2691 20.687 17.1868 20.8857 17.1868 21.0929V23.4366H1.56244V4.68732H4.68732V5.46854C4.68732 5.67573 4.76962 5.87444 4.91613 6.02094C5.06264 6.16745 5.26134 6.24976 5.46854 6.24976H13.2807C13.4879 6.24976 13.6866 6.16745 13.8331 6.02094C13.9796 5.87444 14.062 5.67573 14.062 5.46854V4.68732H17.1868V5.46854C17.1868 5.67573 17.2691 5.87444 17.4156 6.02094C17.5621 6.16745 17.7609 6.24976 17.968 6.24976C18.1752 6.24976 18.3739 6.16745 18.5205 6.02094C18.667 5.87444 18.7493 5.67573 18.7493 5.46854V3.9061C18.7493 3.69891 18.667 3.5002 18.5205 3.35369C18.3739 3.20718 18.1752 3.12488 17.968 3.12488H14.062V2.34366C14.062 1.72208 13.815 1.12596 13.3755 0.686443C12.936 0.246922 12.3399 0 11.7183 0H7.03098C6.4094 0 5.81328 0.246922 5.37376 0.686443C4.93424 1.12596 4.68732 1.72208 4.68732 2.34366V3.12488H0.781219C0.574027 3.12488 0.37532 3.20718 0.228813 3.35369C0.0823062 3.5002 0 3.69891 0 3.9061V24.2178C0 24.425 0.0823062 24.6237 0.228813 24.7702C0.37532 24.9167 0.574027 24.999 0.781219 24.999H17.968C18.1752 24.999 18.3739 24.9167 18.5205 24.7702C18.667 24.6237 18.7493 24.425 18.7493 24.2178V21.0929C18.7493 20.8857 18.667 20.687 18.5205 20.5405C18.3739 20.394 18.1752 20.3117 17.968 20.3117ZM6.24976 2.34366C6.24976 2.13647 6.33206 1.93776 6.47857 1.79125C6.62508 1.64475 6.82378 1.56244 7.03098 1.56244H11.7183C11.9255 1.56244 12.1242 1.64475 12.2707 1.79125C12.4172 1.93776 12.4995 2.13647 12.4995 2.34366V4.68732H6.24976V2.34366ZM24.7709 9.60275L21.646 6.47787C21.5735 6.40512 21.4873 6.3474 21.3923 6.30802C21.2974 6.26863 21.1957 6.24836 21.0929 6.24836C20.9902 6.24836 20.8884 6.26863 20.7935 6.30802C20.6986 6.3474 20.6124 6.40512 20.5398 6.47787L11.1652 15.8525C11.0927 15.9252 11.0352 16.0114 10.9961 16.1064C10.9569 16.2013 10.9369 16.303 10.9371 16.4056V19.5305C10.9371 19.7377 11.0194 19.9364 11.1659 20.0829C11.3124 20.2294 11.5111 20.3117 11.7183 20.3117H14.8432C14.9458 20.3119 15.0475 20.2918 15.1424 20.2527C15.2373 20.2136 15.3236 20.1561 15.3963 20.0836L24.7709 10.709C24.8437 10.6364 24.9014 10.5502 24.9408 10.4553C24.9801 10.3604 25.0004 10.2586 25.0004 10.1559C25.0004 10.0531 24.9801 9.95135 24.9408 9.85644C24.9014 9.76152 24.8437 9.67532 24.7709 9.60275ZM12.4995 18.7493V16.729L21.0929 8.13562L23.1132 10.1559L14.5197 18.7493H12.4995ZM9.37463 19.5305C9.37463 19.7377 9.29233 19.9364 9.14582 20.0829C8.99931 20.2294 8.80061 20.3117 8.59341 20.3117H5.46854C5.26134 20.3117 5.06264 20.2294 4.91613 20.0829C4.76962 19.9364 4.68732 19.7377 4.68732 19.5305C4.68732 19.3233 4.76962 19.1246 4.91613 18.9781C5.06264 18.8316 5.26134 18.7493 5.46854 18.7493H8.59341C8.80061 18.7493 8.99931 18.8316 9.14582 18.9781C9.29233 19.1246 9.37463 19.3233 9.37463 19.5305ZM9.37463 14.8432C9.37463 15.0504 9.29233 15.2491 9.14582 15.3956C8.99931 15.5421 8.80061 15.6244 8.59341 15.6244H5.46854C5.26134 15.6244 5.06264 15.5421 4.91613 15.3956C4.76962 15.2491 4.68732 15.0504 4.68732 14.8432C4.68732 14.636 4.76962 14.4373 4.91613 14.2908C5.06264 14.1443 5.26134 14.062 5.46854 14.062H8.59341C8.80061 14.062 8.99931 14.1443 9.14582 14.2908C9.29233 14.4373 9.37463 14.636 9.37463 14.8432ZM13.2807 10.9371H5.46854C5.26134 10.9371 5.06264 10.8548 4.91613 10.7083C4.76962 10.5618 4.68732 10.363 4.68732 10.1559C4.68732 9.94866 4.76962 9.74995 4.91613 9.60345C5.06264 9.45694 5.26134 9.37463 5.46854 9.37463H13.2807C13.4879 9.37463 13.6866 9.45694 13.8331 9.60345C13.9796 9.74995 14.062 9.94866 14.062 10.1559C14.062 10.363 13.9796 10.5618 13.8331 10.7083C13.6866 10.8548 13.4879 10.9371 13.2807 10.9371Z" fill="black"/>
</svg>
